<svg width="20" height="80" viewBox="0 0 20 80" fill="none" xmlns="http://www.w3.org/2000/svg">
<path d="M19 78.7386C19 78.9889 18.914 79.2079 18.7419 79.3956C18.5542 79.5676 18.3352 79.6537 18.0849 79.6537H1.59025C1.32434 79.6537 1.10534 79.5676 0.933281 79.3956C0.761217 79.2079 0.675186 78.9889 0.675186 78.7386C0.675186 78.3632 0.831607 78.0895 1.14445 77.9174L16.8648 70.0103V70.808L1.14445 63.0417C0.831607 62.854 0.675186 62.5802 0.675186 62.2205C0.675186 61.9702 0.761217 61.759 0.933281 61.587C1.10534 61.4149 1.32434 61.3289 1.59025 61.3289H18.0849C18.3352 61.3289 18.5542 61.4149 18.7419 61.587C18.914 61.759 19 61.9702 19 62.2205C19 62.4864 18.914 62.7132 18.7419 62.9009C18.5542 63.073 18.3352 63.159 18.0849 63.159H3.96004L3.98351 62.7601L18.1319 69.6818C18.4291 69.8538 18.5777 70.1198 18.5777 70.4795C18.5777 70.8706 18.39 71.1521 18.0145 71.3242L4.07736 78.2928L3.96004 77.8235H18.0849C18.3352 77.8235 18.5542 77.9174 18.7419 78.1051C18.914 78.2772 19 78.4883 19 78.7386ZM19.1173 51.018C19.1173 52.2694 18.8358 53.3878 18.2726 54.3733C17.7095 55.3587 16.9352 56.133 15.9498 56.6961C14.9643 57.2593 13.8459 57.5408 12.5945 57.5408C11.3275 57.5408 10.2013 57.2593 9.21582 56.6961C8.23036 56.133 7.45607 55.3587 6.89295 54.3733C6.32983 53.3878 6.04827 52.2694 6.04827 51.018C6.04827 49.7667 6.32983 48.6561 6.89295 47.6863C7.45607 46.7008 8.23036 45.9265 9.21582 45.3634C10.2013 44.8003 11.3275 44.5109 12.5945 44.4952C13.8459 44.4952 14.9643 44.7846 15.9498 45.3634C16.9352 45.9265 17.7095 46.7008 18.2726 47.6863C18.8358 48.6561 19.1173 49.7667 19.1173 51.018ZM17.4749 51.018C17.4749 50.1108 17.2637 49.2974 16.8414 48.5779C16.419 47.8583 15.8403 47.2952 15.1051 46.8885C14.3699 46.4818 13.5331 46.2785 12.5945 46.2785C11.656 46.2785 10.8191 46.4818 10.084 46.8885C9.33313 47.2952 8.74655 47.8583 8.32421 48.5779C7.90187 49.2974 7.6907 50.1108 7.6907 51.018C7.6907 51.9253 7.90187 52.7387 8.32421 53.4582C8.74655 54.1778 9.33313 54.7487 10.084 55.171C10.8191 55.5777 11.656 55.7811 12.5945 55.7811C13.5331 55.7811 14.3699 55.5777 15.1051 55.171C15.8403 54.7487 16.419 54.1778 16.8414 53.4582C17.2637 52.7387 17.4749 51.9253 17.4749 51.018ZM19.1173 34.4821C19.1173 35.7022 18.8358 36.805 18.2726 37.7904C17.7095 38.7602 16.9431 39.5345 15.9732 40.1133C14.9878 40.6764 13.885 40.9658 12.6649 40.9814H1.59025C1.30869 40.9814 1.0897 40.9032 0.933281 40.7468C0.761217 40.5747 0.675186 40.3479 0.675186 40.0664C0.675186 39.8005 0.761217 39.5893 0.933281 39.4329C1.0897 39.2608 1.30869 39.1748 1.59025 39.1748H8.48845C7.75327 38.6586 7.16669 37.9781 6.72871 37.1335C6.27509 36.2731 6.04827 35.319 6.04827 34.2709C6.04827 33.0665 6.33765 31.9872 6.91641 31.033C7.47953 30.0788 8.25382 29.328 9.23928 28.7805C10.2247 28.2174 11.3353 27.9359 12.5711 27.9359C13.8224 27.9359 14.9409 28.2252 15.9263 28.804C16.9118 29.3671 17.6939 30.1414 18.2726 31.1269C18.8358 32.1123 19.1173 33.2307 19.1173 34.4821ZM17.4749 34.4821C17.4749 33.5749 17.2637 32.7615 16.8414 32.0419C16.4034 31.3224 15.8168 30.7593 15.0816 30.3526C14.3465 29.9302 13.5096 29.7191 12.5711 29.7191C11.6482 29.7191 10.8191 29.9302 10.084 30.3526C9.33313 30.7593 8.74655 31.3224 8.32421 32.0419C7.90187 32.7615 7.6907 33.5749 7.6907 34.4821C7.6907 35.3737 7.90187 36.1793 8.32421 36.8988C8.74655 37.6184 9.33313 38.1815 10.084 38.5882C10.8191 38.9949 11.6482 39.1982 12.5711 39.1982C13.5096 39.1982 14.3465 38.9949 15.0816 38.5882C15.8168 38.1815 16.4034 37.6184 16.8414 36.8988C17.2637 36.1793 17.4749 35.3737 17.4749 34.4821ZM19 23.1017C19 23.3833 18.9218 23.6101 18.7654 23.7821C18.5933 23.9386 18.3665 24.0168 18.0849 24.0168H7.08066C6.7991 24.0168 6.58011 23.9386 6.42369 23.7821C6.25162 23.6101 6.16559 23.3833 6.16559 23.1017C6.16559 22.8358 6.25162 22.6246 6.42369 22.4682C6.58011 22.2961 6.7991 22.2101 7.08066 22.2101H18.0849C18.3665 22.2101 18.5933 22.2961 18.7654 22.4682C18.9218 22.6246 19 22.8358 19 23.1017ZM3.72541 23.1252C3.72541 23.4693 3.60027 23.7665 3.35 24.0168C3.09972 24.267 2.7947 24.3922 2.43493 24.3922C2.04388 24.3922 1.73885 24.267 1.51986 24.0168C1.28523 23.7508 1.16791 23.4458 1.16791 23.1017C1.16791 22.7732 1.28523 22.4838 1.51986 22.2336C1.73885 21.9676 2.04388 21.8347 2.43493 21.8347C2.7947 21.8347 3.09972 21.9598 3.35 22.2101C3.60027 22.4604 3.72541 22.7654 3.72541 23.1252ZM19 14.8412C19 15.4668 18.8279 16.03 18.4838 16.5305C18.1397 17.0154 17.6626 17.3987 17.0525 17.6802C16.4425 17.9461 15.7386 18.0791 14.9409 18.0791H1.56679C1.30087 18.0791 1.0897 18.0009 0.933281 17.8445C0.761217 17.6724 0.675186 17.4534 0.675186 17.1875C0.675186 16.9216 0.761217 16.7104 0.933281 16.554C1.0897 16.3819 1.30087 16.2959 1.56679 16.2959H14.9409C15.6135 16.2959 16.1609 16.1629 16.5833 15.897C17.0056 15.6154 17.2168 15.2635 17.2168 14.8412V14.2546C17.2168 14.0199 17.3028 13.8322 17.4749 13.6915C17.6313 13.5507 17.8425 13.4803 18.1084 13.4803C18.3743 13.4803 18.5933 13.582 18.7654 13.7853C18.9218 13.973 19 14.2233 19 14.5361V14.8412ZM19.1173 5.87928C19.1173 7.1463 18.8436 8.27254 18.2961 9.25799C17.733 10.2278 16.9587 10.9943 15.9732 11.5574C14.9878 12.1049 13.8615 12.3786 12.5945 12.3786C11.3119 12.3786 10.1856 12.1205 9.21582 11.6043C8.23036 11.0725 7.45607 10.3451 6.89295 9.42224C6.32983 8.49935 6.04827 7.43568 6.04827 6.23123C6.04827 5.04243 6.32201 4.01004 6.86949 3.13408C7.40132 2.24248 8.14433 1.55422 9.0985 1.06931C10.0527 0.584404 11.1398 0.341951 12.3599 0.341951C12.6102 0.341951 12.8135 0.420162 12.9699 0.576583C13.1107 0.733005 13.1811 0.936353 13.1811 1.18663V11.1585H11.6795V0.998922L12.4068 2.00784C11.4996 1.9922 10.6862 2.15644 9.96664 2.50057C9.2471 2.8447 8.68398 3.33743 8.27729 3.97876C7.87059 4.60444 7.66724 5.35527 7.66724 6.23123C7.66724 7.12284 7.87841 7.90494 8.30075 8.57756C8.72309 9.25017 9.30967 9.77419 10.0605 10.1496C10.7957 10.5094 11.6404 10.6893 12.5945 10.6893C13.5487 10.6893 14.3934 10.4859 15.1286 10.0792C15.8637 9.65687 16.4425 9.08593 16.8648 8.36639C17.2872 7.64685 17.4984 6.81781 17.4984 5.87928C17.4984 5.31616 17.4045 4.75305 17.2168 4.18993C17.0134 3.61117 16.7632 3.14972 16.466 2.80559C16.3252 2.63353 16.2548 2.438 16.2548 2.21901C16.2392 2.00002 16.2939 1.81232 16.419 1.65589C16.6067 1.45255 16.8101 1.35087 17.0291 1.35087C17.2481 1.33523 17.4358 1.42126 17.5922 1.60897C18.0302 2.12516 18.3978 2.78213 18.695 3.57988C18.9765 4.37763 19.1173 5.1441 19.1173 5.87928Z" fill="black"/>
</svg>
