<svg width="20" height="74" viewBox="0 0 20 74" fill="none" xmlns="http://www.w3.org/2000/svg">
<path d="M19 66.3275C19 66.5778 18.914 66.7968 18.7419 66.9845C18.5542 67.1565 18.3352 67.2426 18.0849 67.2426H0.675186V65.4124H18.0849C18.3352 65.4124 18.5542 65.4985 18.7419 65.6705C18.914 65.8426 19 66.0616 19 66.3275ZM2.34108 72.8034C2.34108 73.0536 2.26287 73.257 2.10644 73.4134C1.95002 73.5698 1.7545 73.6481 1.51986 73.6481C1.26959 73.6481 1.06624 73.5698 0.909818 73.4134C0.753396 73.257 0.675186 73.0536 0.675186 72.8034L0.675186 59.8282C0.675186 59.5779 0.753396 59.3746 0.909818 59.2181C1.06624 59.0617 1.26959 58.9835 1.51986 58.9835C1.7545 58.9835 1.95002 59.0617 2.10644 59.2181C2.26287 59.3746 2.34108 59.5779 2.34108 59.8282L2.34108 72.8034ZM19.1173 54.3875C19.1173 55.5919 18.8358 56.6712 18.2726 57.6254C17.6939 58.5796 16.9118 59.3382 15.9263 59.9013C14.9409 60.4488 13.8303 60.7225 12.5945 60.7225C11.3432 60.7225 10.2247 60.441 9.23928 59.8779C8.25382 59.2991 7.47953 58.517 6.91641 57.5315C6.33765 56.5461 6.04827 55.4355 6.04827 54.1997C6.04827 52.964 6.33765 51.8612 6.91641 50.8914C7.47953 49.906 8.25382 49.1317 9.23928 48.5686C10.2247 47.9898 11.3432 47.6926 12.5945 47.677L13.1576 48.4043C14.2839 48.4043 15.3006 48.6702 16.2079 49.2021C17.0995 49.7183 17.8112 50.43 18.343 51.3372C18.8592 52.2288 19.1173 53.2456 19.1173 54.3875ZM17.4749 54.1997C17.4749 53.2925 17.2637 52.4869 16.8414 51.783C16.419 51.0635 15.8403 50.5004 15.1051 50.0937C14.3543 49.6713 13.5174 49.4602 12.5945 49.4602C11.656 49.4602 10.8191 49.6713 10.084 50.0937C9.34877 50.5004 8.77001 51.0635 8.34767 51.783C7.90969 52.4869 7.6907 53.2925 7.6907 54.1997C7.6907 55.0914 7.90969 55.8969 8.34767 56.6165C8.77001 57.336 9.34877 57.9069 10.084 58.3293C10.8191 58.7516 11.656 58.9628 12.5945 58.9628C13.5174 58.9628 14.3543 58.7516 15.1051 58.3293C15.8403 57.9069 16.419 57.336 16.8414 56.6165C17.2637 55.8969 17.4749 55.0914 17.4749 54.1997ZM19 48.592C19 48.8579 18.9218 49.0769 18.7654 49.249C18.5933 49.4211 18.3743 49.5071 18.1084 49.5071H14.0962L12.2426 49.0613L12.5945 47.677H18.1084C18.3743 47.677 18.5933 47.763 18.7654 47.9351C18.9218 48.1071 19 48.3261 19 48.592ZM19.1173 37.6638C19.1173 38.8839 18.8358 39.9867 18.2726 40.9721C17.7095 41.942 16.9431 42.7163 15.9732 43.295C14.9878 43.8581 13.885 44.1475 12.6649 44.1632H1.59025C1.30869 44.1632 1.0897 44.0849 0.933281 43.9285C0.761217 43.7565 0.675186 43.5296 0.675186 43.2481C0.675186 42.9822 0.761217 42.771 0.933281 42.6146C1.0897 42.4425 1.30869 42.3565 1.59025 42.3565H8.48845C7.75327 41.8403 7.16669 41.1599 6.72871 40.3152C6.27509 39.4549 6.04827 38.5007 6.04827 37.4527C6.04827 36.2482 6.33765 35.1689 6.91641 34.2147C7.47953 33.2606 8.25382 32.5097 9.23928 31.9623C10.2247 31.3991 11.3353 31.1176 12.5711 31.1176C13.8224 31.1176 14.9409 31.407 15.9263 31.9857C16.9118 32.5488 17.6939 33.3231 18.2726 34.3086C18.8358 35.294 19.1173 36.4125 19.1173 37.6638ZM17.4749 37.6638C17.4749 36.7566 17.2637 35.9432 16.8414 35.2236C16.4034 34.5041 15.8168 33.941 15.0816 33.5343C14.3465 33.112 13.5096 32.9008 12.5711 32.9008C11.6482 32.9008 10.8191 33.112 10.084 33.5343C9.33313 33.941 8.74655 34.5041 8.32421 35.2236C7.90187 35.9432 7.6907 36.7566 7.6907 37.6638C7.6907 38.5554 7.90187 39.361 8.32421 40.0805C8.74655 40.8001 9.33313 41.3632 10.084 41.7699C10.8191 42.1766 11.6482 42.3799 12.5711 42.3799C13.5096 42.3799 14.3465 42.1766 15.0816 41.7699C15.8168 41.3632 16.4034 40.8001 16.8414 40.0805C17.2637 39.361 17.4749 38.5554 17.4749 37.6638ZM19 24.8052C19 25.4309 18.8279 25.994 18.4838 26.4946C18.1397 26.9795 17.6626 27.3627 17.0525 27.6443C16.4425 27.9102 15.7386 28.0432 14.9409 28.0432H1.56679C1.30087 28.0432 1.0897 27.9649 0.933281 27.8085C0.761217 27.6365 0.675186 27.4175 0.675186 27.1515C0.675186 26.8856 0.761217 26.6745 0.933281 26.518C1.0897 26.346 1.30087 26.2599 1.56679 26.2599H14.9409C15.6135 26.2599 16.1609 26.127 16.5833 25.8611C17.0056 25.5795 17.2168 25.2276 17.2168 24.8052V24.2186C17.2168 23.984 17.3028 23.7963 17.4749 23.6555C17.6313 23.5147 17.8425 23.4444 18.1084 23.4444C18.3743 23.4444 18.5933 23.546 18.7654 23.7494C18.9218 23.9371 19 24.1874 19 24.5002V24.8052ZM19.1173 15.8434C19.1173 17.1104 18.8436 18.2366 18.2961 19.2221C17.733 20.1919 16.9587 20.9583 15.9732 21.5215C14.9878 22.0689 13.8615 22.3427 12.5945 22.3427C11.3119 22.3427 10.1856 22.0846 9.21582 21.5684C8.23036 21.0366 7.45607 20.3092 6.89295 19.3863C6.32983 18.4634 6.04827 17.3997 6.04827 16.1953C6.04827 15.0065 6.32201 13.9741 6.86949 13.0981C7.40132 12.2065 8.14433 11.5183 9.0985 11.0334C10.0527 10.5485 11.1398 10.306 12.3599 10.306C12.6102 10.306 12.8135 10.3842 12.9699 10.5407C13.1107 10.6971 13.1811 10.9004 13.1811 11.1507V21.1226H11.6795V10.963L12.4068 11.9719C11.4996 11.9563 10.6862 12.1205 9.96664 12.4646C9.2471 12.8088 8.68398 13.3015 8.27729 13.9428C7.87059 14.5685 7.66724 15.3193 7.66724 16.1953C7.66724 17.0869 7.87841 17.869 8.30075 18.5416C8.72309 19.2142 9.30967 19.7383 10.0605 20.1137C10.7957 20.4734 11.6404 20.6533 12.5945 20.6533C13.5487 20.6533 14.3934 20.45 15.1286 20.0433C15.8637 19.6209 16.4425 19.05 16.8648 18.3305C17.2872 17.6109 17.4984 16.7819 17.4984 15.8434C17.4984 15.2802 17.4045 14.7171 17.2168 14.154C17.0134 13.5752 16.7632 13.1138 16.466 12.7697C16.3252 12.5976 16.2548 12.4021 16.2548 12.1831C16.2392 11.9641 16.2939 11.7764 16.419 11.62C16.6067 11.4166 16.8101 11.3149 17.0291 11.3149C17.2481 11.2993 17.4358 11.3853 17.5922 11.573C18.0302 12.0892 18.3978 12.7462 18.695 13.544C18.9765 14.3417 19.1173 15.1082 19.1173 15.8434ZM19 2.22861C19 3.05764 18.8045 3.80065 18.4134 4.45762C18.0224 5.09895 17.4905 5.60732 16.8179 5.98273C16.1297 6.35814 15.3476 6.54585 14.4716 6.54585H2.99805C2.73213 6.54585 2.51314 6.46764 2.34108 6.31122C2.16901 6.13915 2.08298 5.92016 2.08298 5.65425C2.08298 5.38833 2.16901 5.16934 2.34108 4.99727C2.51314 4.82521 2.73213 4.73918 2.99805 4.73918H14.4716C15.2693 4.73918 15.9263 4.50455 16.4425 4.03528C16.9431 3.56601 17.1933 2.96379 17.1933 2.22861V1.5951C17.1933 1.34482 17.2794 1.14148 17.4514 0.985055C17.6235 0.828633 17.8425 0.750422 18.1084 0.750422C18.3743 0.750422 18.5933 0.844275 18.7654 1.03198C18.9218 1.21969 19 1.45432 19 1.73588V2.22861ZM8.2069 8.07096C8.2069 8.3056 8.13651 8.50112 7.99573 8.65754C7.8393 8.81397 7.6516 8.89218 7.43261 8.89218C7.19797 8.89218 7.01027 8.81397 6.86949 8.65754C6.71307 8.50112 6.63486 8.3056 6.63486 8.07096L6.63486 2.08783C6.63486 1.8532 6.71307 1.65767 6.86949 1.50125C7.01027 1.34482 7.19797 1.26661 7.43261 1.26661C7.6516 1.26661 7.8393 1.34482 7.99573 1.50125C8.13651 1.65767 8.2069 1.8532 8.2069 2.08783L8.2069 8.07096Z" fill="black"/>
</svg>
