<svg width="1920" height="1080" viewBox="0 0 1920 1080" fill="none" xmlns="http://www.w3.org/2000/svg">
<g clip-path="url(#clip0_1_85)">
<rect width="1920" height="1080" fill="white"/>
<g opacity="0.34">
<g opacity="0.78">
<g filter="url(#filter0_f_1_85)">
<path d="M2139.74 199.333C2139.74 372.383 1999.46 512.667 1826.41 512.667C1653.36 512.667 1440.21 556.375 1440.21 383.326C1440.21 210.276 1653.36 -114 1826.41 -114C1999.46 -114 2139.74 26.2841 2139.74 199.333Z" fill="#F76582"/>
</g>
<g filter="url(#filter1_f_1_85)">
<path d="M1870.75 438.456C1870.75 611.505 1730.47 751.79 1557.42 751.79C1384.37 751.79 1244.09 611.505 1244.09 438.456C1244.09 265.407 1367.97 456.673 1541.02 456.673C1714.07 456.673 1870.75 265.407 1870.75 438.456Z" fill="#F2AB93"/>
</g>
</g>
<g opacity="0.8">
<g filter="url(#filter2_f_1_85)">
<path d="M469.047 809.728C350.942 809.728 255.199 713.985 255.199 595.88C255.199 477.775 225.369 332.3 343.474 332.3C461.579 332.3 682.895 477.775 682.895 595.88C682.895 713.985 587.152 809.728 469.047 809.728Z" fill="#7056F5"/>
</g>
<g filter="url(#filter3_f_1_85)">
<path d="M305.848 626.143C187.743 626.143 91.9999 530.4 91.9999 412.295C91.9999 294.19 187.743 198.447 305.848 198.447C423.952 198.447 293.414 283 293.414 401.105C293.414 519.21 423.952 626.143 305.848 626.143Z" fill="#ABB3FE"/>
</g>
</g>
</g>
</g>
<defs>
<filter id="filter0_f_1_85" x="1200.21" y="-354" width="1179.53" height="1111.59" filterUnits="userSpaceOnUse" color-interpolation-filters="sRGB">
<feFlood flood-opacity="0" result="BackgroundImageFix"/>
<feBlend mode="normal" in="SourceGraphic" in2="BackgroundImageFix" result="shape"/>
<feGaussianBlur stdDeviation="120" result="effect1_foregroundBlur_1_85"/>
</filter>
<filter id="filter1_f_1_85" x="1004.09" y="126" width="1106.67" height="865.79" filterUnits="userSpaceOnUse" color-interpolation-filters="sRGB">
<feFlood flood-opacity="0" result="BackgroundImageFix"/>
<feBlend mode="normal" in="SourceGraphic" in2="BackgroundImageFix" result="shape"/>
<feGaussianBlur stdDeviation="120" result="effect1_foregroundBlur_1_85"/>
</filter>
<filter id="filter2_f_1_85" x="88.0412" y="168.502" width="758.652" height="805.024" filterUnits="userSpaceOnUse" color-interpolation-filters="sRGB">
<feFlood flood-opacity="0" result="BackgroundImageFix"/>
<feBlend mode="normal" in="SourceGraphic" in2="BackgroundImageFix" result="shape"/>
<feGaussianBlur stdDeviation="81.8991" result="effect1_foregroundBlur_1_85"/>
</filter>
<filter id="filter3_f_1_85" x="-71.7982" y="34.6491" width="590.895" height="755.292" filterUnits="userSpaceOnUse" color-interpolation-filters="sRGB">
<feFlood flood-opacity="0" result="BackgroundImageFix"/>
<feBlend mode="normal" in="SourceGraphic" in2="BackgroundImageFix" result="shape"/>
<feGaussianBlur stdDeviation="81.8991" result="effect1_foregroundBlur_1_85"/>
</filter>
<clipPath id="clip0_1_85">
<rect width="1920" height="1080" fill="white"/>
</clipPath>
</defs>
</svg>
