<svg width="182" height="38" viewBox="0 0 182 38" fill="none" xmlns="http://www.w3.org/2000/svg">
<rect x="0.5" y="0.5" width="181" height="37" rx="9.5" stroke="#808080"/>
<g opacity="0.5">
<path d="M150.5 30.25H165.5M158 7.75V25.25M158 25.25L164.25 19M158 25.25L151.75 19" stroke="black" stroke-width="2.25" stroke-linecap="round" stroke-linejoin="round"/>
</g>
<path d="M32.6824 25C32.4637 25 32.2836 24.9292 32.1421 24.7877C32.0006 24.6462 31.9298 24.4661 31.9298 24.2474V10.6808C31.9298 10.4621 32.0006 10.282 32.1421 10.1405C32.2836 9.99898 32.4637 9.92823 32.6824 9.92823H36.1561C37.2625 9.92823 38.2724 10.1148 39.1859 10.4879C40.1122 10.8481 40.9098 11.3691 41.5788 12.051C42.2478 12.72 42.7624 13.5112 43.1227 14.4247C43.4958 15.3381 43.6823 16.348 43.6823 17.4545C43.6823 18.5609 43.4958 19.5772 43.1227 20.5036C42.7624 21.417 42.2478 22.2146 41.5788 22.8965C40.9098 23.5655 40.1122 24.0866 39.1859 24.4597C38.2724 24.8199 37.2625 25 36.1561 25H32.6824ZM33.4351 23.6491H36.1561C37.3397 23.6491 38.3818 23.3854 39.2824 22.8579C40.1958 22.3176 40.9098 21.5842 41.4244 20.6579C41.9391 19.7188 42.1964 18.6509 42.1964 17.4545C42.1964 16.258 41.9391 15.1966 41.4244 14.2703C40.9098 13.3311 40.1958 12.5978 39.2824 12.0703C38.3818 11.5428 37.3397 11.2791 36.1561 11.2791H33.4351V23.6491ZM51.3925 25.0965C50.3633 25.0965 49.4434 24.8649 48.6329 24.4018C47.8223 23.9386 47.1855 23.3018 46.7224 22.4913C46.2592 21.6807 46.0276 20.7609 46.0276 19.7316C46.0276 18.6895 46.2592 17.7632 46.7224 16.9527C47.1855 16.1422 47.8223 15.5054 48.6329 15.0422C49.4434 14.5791 50.3633 14.3475 51.3925 14.3475C52.4217 14.3475 53.3352 14.5791 54.1328 15.0422C54.9433 15.5054 55.5802 16.1422 56.0433 16.9527C56.5065 17.7632 56.7445 18.6895 56.7573 19.7316C56.7573 20.7609 56.5193 21.6807 56.0433 22.4913C55.5802 23.3018 54.9433 23.9386 54.1328 24.4018C53.3352 24.8649 52.4217 25.0965 51.3925 25.0965ZM51.3925 23.7456C52.1387 23.7456 52.8077 23.5719 53.3995 23.2246C53.9913 22.8772 54.4544 22.4012 54.7889 21.7965C55.1234 21.1919 55.2907 20.5036 55.2907 19.7316C55.2907 18.9597 55.1234 18.2714 54.7889 17.6667C54.4544 17.0492 53.9913 16.5668 53.3995 16.2194C52.8077 15.872 52.1387 15.6983 51.3925 15.6983C50.6463 15.6983 49.9773 15.872 49.3855 16.2194C48.7937 16.5668 48.3241 17.0492 47.9767 17.6667C47.6422 18.2714 47.475 18.9597 47.475 19.7316C47.475 20.5036 47.6422 21.1919 47.9767 21.7965C48.3241 22.4012 48.7937 22.8772 49.3855 23.2246C49.9773 23.5719 50.6463 23.7456 51.3925 23.7456ZM61.4561 25C61.2889 25 61.1409 24.955 61.0123 24.8649C60.8836 24.7749 60.7936 24.6591 60.7421 24.5175L57.7316 15.4861C57.6544 15.1644 57.6608 14.9136 57.7509 14.7334C57.841 14.5405 58.0211 14.444 58.2912 14.444C58.4585 14.444 58.6064 14.489 58.7351 14.5791C58.8637 14.6691 58.9602 14.8106 59.0246 15.0036L61.707 23.2053H61.2824L63.7719 15.0229C63.8233 14.8557 63.907 14.7206 64.0228 14.6177C64.1514 14.5019 64.3122 14.444 64.5052 14.444C64.6982 14.444 64.8526 14.4954 64.9684 14.5984C65.097 14.7013 65.1871 14.8428 65.2385 15.0229L67.6122 23.0123H67.2841L69.9087 15.0036C70.0373 14.6305 70.2753 14.444 70.6227 14.444C70.9057 14.444 71.0987 14.5533 71.2016 14.772C71.3046 14.9779 71.3046 15.2159 71.2016 15.4861L68.1911 24.5175C68.1397 24.6591 68.0496 24.7749 67.921 24.8649C67.8052 24.955 67.6637 25 67.4964 25C67.3292 25 67.1748 24.955 67.0333 24.8649C66.9046 24.7749 66.821 24.6591 66.7824 24.5175L64.3508 16.451H64.5824L62.1508 24.5175C62.0994 24.6719 62.0093 24.7942 61.8807 24.8842C61.752 24.9614 61.6105 25 61.4561 25ZM82.399 25C82.1803 25 82.0002 24.9292 81.8587 24.7877C81.7172 24.6462 81.6464 24.4725 81.6464 24.2667V19.2492C81.6464 18.4515 81.492 17.7954 81.1832 17.2808C80.8873 16.7662 80.4756 16.3802 79.9482 16.1229C79.4336 15.8656 78.8482 15.7369 78.192 15.7369C77.5616 15.7369 76.9891 15.8592 76.4745 16.1036C75.9728 16.348 75.5739 16.6825 75.278 17.1071C74.9821 17.5317 74.8342 18.0141 74.8342 18.5545H73.7728C73.7985 17.7439 74.0172 17.0235 74.4289 16.3931C74.8406 15.7498 75.3874 15.2481 76.0693 14.8878C76.7511 14.5147 77.5102 14.3282 78.3464 14.3282C79.2599 14.3282 80.0768 14.5212 80.7973 14.9071C81.5177 15.2802 82.0838 15.8334 82.4955 16.5668C82.9201 17.3001 83.1323 18.1942 83.1323 19.2492V24.2667C83.1323 24.4725 83.0616 24.6462 82.9201 24.7877C82.7785 24.9292 82.6049 25 82.399 25ZM74.1009 25C73.8693 25 73.6827 24.9357 73.5412 24.807C73.4126 24.6655 73.3482 24.4854 73.3482 24.2667V15.1966C73.3482 14.965 73.4126 14.7849 73.5412 14.6562C73.6827 14.5147 73.8693 14.444 74.1009 14.444C74.3196 14.444 74.4933 14.5147 74.6219 14.6562C74.7634 14.7849 74.8342 14.965 74.8342 15.1966V24.2667C74.8342 24.4854 74.7634 24.6655 74.6219 24.807C74.4933 24.9357 74.3196 25 74.1009 25ZM88.6855 25C88.1709 25 87.7077 24.8585 87.2961 24.5754C86.8972 24.2924 86.582 23.9 86.3504 23.3983C86.1317 22.8965 86.0224 22.3176 86.0224 21.6614V10.6616C86.0224 10.4428 86.0867 10.2692 86.2154 10.1405C86.3569 9.99898 86.537 9.92823 86.7557 9.92823C86.9744 9.92823 87.1481 9.99898 87.2768 10.1405C87.4183 10.2692 87.489 10.4428 87.489 10.6616V21.6614C87.489 22.2146 87.5984 22.6649 87.8171 23.0123C88.0487 23.3597 88.3381 23.5333 88.6855 23.5333H89.168C89.3609 23.5333 89.5153 23.6041 89.6311 23.7456C89.7469 23.8743 89.8048 24.048 89.8048 24.2667C89.8048 24.4854 89.7212 24.6655 89.5539 24.807C89.3995 24.9357 89.1937 25 88.9364 25H88.6855ZM96.0758 25.0965C95.0465 25.0965 94.1267 24.8649 93.3161 24.4018C92.5056 23.9386 91.8688 23.3018 91.4056 22.4913C90.9425 21.6807 90.7109 20.7609 90.7109 19.7316C90.7109 18.6895 90.9425 17.7632 91.4056 16.9527C91.8688 16.1422 92.5056 15.5054 93.3161 15.0422C94.1267 14.5791 95.0465 14.3475 96.0758 14.3475C97.105 14.3475 98.0184 14.5791 98.8161 15.0422C99.6266 15.5054 100.263 16.1422 100.727 16.9527C101.19 17.7632 101.428 18.6895 101.441 19.7316C101.441 20.7609 101.203 21.6807 100.727 22.4913C100.263 23.3018 99.6266 23.9386 98.8161 24.4018C98.0184 24.8649 97.105 25.0965 96.0758 25.0965ZM96.0758 23.7456C96.8219 23.7456 97.4909 23.5719 98.0828 23.2246C98.6746 22.8772 99.1377 22.4012 99.4722 21.7965C99.8067 21.1919 99.974 20.5036 99.974 19.7316C99.974 18.9597 99.8067 18.2714 99.4722 17.6667C99.1377 17.0492 98.6746 16.5668 98.0828 16.2194C97.4909 15.872 96.8219 15.6983 96.0758 15.6983C95.3296 15.6983 94.6606 15.872 94.0688 16.2194C93.477 16.5668 93.0074 17.0492 92.66 17.6667C92.3255 18.2714 92.1583 18.9597 92.1583 19.7316C92.1583 20.5036 92.3255 21.1919 92.66 21.7965C93.0074 22.4012 93.477 22.8772 94.0688 23.2246C94.6606 23.5719 95.3296 23.7456 96.0758 23.7456ZM108.981 25.0965C107.991 25.0965 107.103 24.8649 106.318 24.4018C105.534 23.9257 104.91 23.2825 104.446 22.472C103.996 21.6614 103.771 20.748 103.771 19.7316C103.771 18.7024 104.003 17.7825 104.466 16.972C104.942 16.1615 105.585 15.5247 106.396 15.0615C107.206 14.5855 108.119 14.3475 109.136 14.3475C110.152 14.3475 111.059 14.5855 111.857 15.0615C112.667 15.5247 113.304 16.1615 113.767 16.972C114.243 17.7825 114.488 18.7024 114.501 19.7316L113.902 20.1948C113.902 21.1211 113.684 21.9573 113.246 22.7035C112.822 23.4369 112.236 24.0222 111.49 24.4597C110.757 24.8842 109.921 25.0965 108.981 25.0965ZM109.136 23.7456C109.882 23.7456 110.545 23.5719 111.124 23.2246C111.715 22.8772 112.179 22.4012 112.513 21.7965C112.86 21.179 113.034 20.4907 113.034 19.7316C113.034 18.9597 112.86 18.2714 112.513 17.6667C112.179 17.0621 111.715 16.5861 111.124 16.2387C110.545 15.8785 109.882 15.6983 109.136 15.6983C108.403 15.6983 107.74 15.8785 107.148 16.2387C106.556 16.5861 106.087 17.0621 105.739 17.6667C105.392 18.2714 105.218 18.9597 105.218 19.7316C105.218 20.4907 105.392 21.179 105.739 21.7965C106.087 22.4012 106.556 22.8772 107.148 23.2246C107.74 23.5719 108.403 23.7456 109.136 23.7456ZM113.748 25C113.529 25 113.349 24.9357 113.208 24.807C113.066 24.6655 112.995 24.4854 112.995 24.2667V20.9667L113.362 19.4422L114.501 19.7316V24.2667C114.501 24.4854 114.43 24.6655 114.288 24.807C114.147 24.9357 113.967 25 113.748 25ZM122.196 25.0965C121.18 25.0965 120.266 24.8649 119.456 24.4018C118.645 23.9257 118.002 23.2825 117.526 22.472C117.063 21.6614 116.831 20.7416 116.831 19.7123C116.831 18.696 117.056 17.7825 117.507 16.972C117.97 16.1615 118.594 15.5247 119.378 15.0615C120.163 14.5855 121.051 14.3475 122.042 14.3475C122.904 14.3475 123.682 14.534 124.377 14.9071C125.071 15.2674 125.631 15.7498 126.056 16.3545V10.6808C126.056 10.4493 126.126 10.2692 126.268 10.1405C126.409 9.99898 126.589 9.92823 126.808 9.92823C127.027 9.92823 127.207 9.99898 127.349 10.1405C127.49 10.2692 127.561 10.4493 127.561 10.6808V19.7895C127.535 20.793 127.284 21.7 126.808 22.5106C126.345 23.3082 125.708 23.9386 124.898 24.4018C124.1 24.8649 123.199 25.0965 122.196 25.0965ZM122.196 23.7456C122.942 23.7456 123.605 23.5719 124.184 23.2246C124.775 22.8643 125.239 22.3819 125.573 21.7772C125.92 21.1726 126.094 20.4843 126.094 19.7123C126.094 18.9533 125.92 18.2714 125.573 17.6667C125.239 17.0492 124.775 16.5668 124.184 16.2194C123.605 15.872 122.942 15.6983 122.196 15.6983C121.463 15.6983 120.8 15.872 120.208 16.2194C119.616 16.5668 119.147 17.0492 118.8 17.6667C118.452 18.2714 118.278 18.9533 118.278 19.7123C118.278 20.4843 118.452 21.1726 118.8 21.7772C119.147 22.3819 119.616 22.8643 120.208 23.2246C120.8 23.5719 121.463 23.7456 122.196 23.7456Z" fill="#808080"/>
</svg>
