<svg width="201" height="24" viewBox="0 0 201 24" fill="none" xmlns="http://www.w3.org/2000/svg">
<path d="M8.3244 23C8.05658 23 7.85572 22.8996 7.72181 22.6987C7.60129 22.4978 7.48747 22.2434 7.38034 21.9354L0.309933 2.27086C0.242979 2.08339 0.176024 1.9093 0.10907 1.74861C0.055506 1.58792 0.0287242 1.43393 0.0287242 1.28663C0.0287242 1.13933 0.0822878 0.992025 0.189415 0.844725C0.296543 0.697425 0.484015 0.623775 0.751834 0.623775C1.00626 0.623775 1.20043 0.744293 1.33434 0.98533C1.46825 1.21298 1.58207 1.46071 1.67581 1.72853L8.3244 20.4892L15.0332 1.72853C15.1404 1.46071 15.2542 1.21298 15.3747 0.98533C15.5086 0.744293 15.6961 0.623775 15.9371 0.623775C16.2451 0.623775 16.4594 0.724207 16.5799 0.925071C16.7138 1.12593 16.841 1.39375 16.9615 1.72853L23.6302 20.4892L30.3391 1.72853C30.4462 1.46071 30.5667 1.21298 30.7006 0.98533C30.8345 0.744293 31.0153 0.623775 31.243 0.623775C31.5108 0.623775 31.6916 0.697425 31.7853 0.844725C31.8924 0.992025 31.946 1.13933 31.946 1.28663C31.946 1.43393 31.9192 1.58792 31.8656 1.74861C31.8255 1.9093 31.7719 2.08339 31.7049 2.27086L24.6145 21.9354C24.4672 22.2434 24.3332 22.4978 24.2127 22.6987C24.0922 22.8996 23.898 23 23.6302 23C23.3624 23 23.1615 22.8996 23.0276 22.6987C22.9071 22.4978 22.7933 22.2434 22.6862 21.9354L15.9773 3.29526L9.30863 21.9354C9.2015 22.2434 9.07429 22.4978 8.92699 22.6987C8.77969 22.8996 8.57883 23 8.3244 23ZM42.7524 23.2009C41.3866 23.2009 40.1412 23.0469 39.0164 22.7389C37.9049 22.4175 37.0144 21.9153 36.3449 21.2324C35.6887 20.5361 35.3607 19.6255 35.3607 18.5007C35.3607 17.1883 35.7155 16.1639 36.4252 15.4274C37.135 14.6909 38.0924 14.1754 39.2976 13.8808C40.5028 13.5728 41.8553 13.4188 43.355 13.4188C45.0691 13.4188 46.7229 13.5125 48.3164 13.7C49.9233 13.8875 51.1552 14.1687 52.0123 14.5436C52.0123 12.7626 51.6976 11.4369 51.0682 10.5665C50.4522 9.68273 49.5751 9.10023 48.4369 8.81902C47.3121 8.52442 45.9864 8.37712 44.4598 8.37712C42.3708 8.37712 40.8041 8.49764 39.7596 8.73867C38.7151 8.97971 37.8715 9.20735 37.2287 9.42161C37.1483 9.44839 37.0948 9.46178 37.068 9.46178C36.9073 9.46178 36.76 9.38144 36.6261 9.22074C36.4922 9.04666 36.4252 8.87258 36.4252 8.6985C36.4252 8.52442 36.5056 8.3972 36.6663 8.31686C36.8939 8.20973 37.6639 8.00217 38.9762 7.69418C40.2885 7.3728 42.3105 7.21211 45.0423 7.21211C46.6894 7.21211 48.1624 7.41297 49.4613 7.8147C50.7602 8.20303 51.7779 8.97301 52.5144 10.1246C53.2643 11.2629 53.6393 12.9568 53.6393 15.2065V21.594C53.6393 21.9019 53.5924 22.2166 53.4987 22.538C53.4183 22.846 53.1907 23 52.8157 23C52.5077 23 52.2935 22.8594 52.173 22.5782C52.0658 22.297 52.0123 21.9421 52.0123 21.5136V20.3888C51.6239 20.7905 51.0548 21.2123 50.3049 21.6542C49.5684 22.0827 48.5909 22.451 47.3723 22.759C46.1537 23.0536 44.6138 23.2009 42.7524 23.2009ZM42.5918 22.0158C45.2298 22.0158 47.292 21.7212 48.7784 21.132C50.2648 20.5428 51.3427 19.9737 52.0123 19.4246V15.3873C50.7133 15.1998 49.3274 15.0257 47.8544 14.865C46.3948 14.6909 44.9486 14.6039 43.5157 14.6039C41.4535 14.6039 39.8466 14.8717 38.695 15.4073C37.5434 15.943 36.9676 16.9741 36.9676 18.5007C36.9676 19.7728 37.4965 20.6767 38.5544 21.2123C39.6123 21.7479 40.9581 22.0158 42.5918 22.0158ZM60.6494 23C60.2611 23 60.0267 22.8661 59.9464 22.5983C59.866 22.3171 59.8259 21.9957 59.8259 21.6341V2.06999C59.8259 1.68166 59.866 1.34688 59.9464 1.06568C60.0401 0.771075 60.2879 0.623775 60.6896 0.623775C61.0244 0.623775 61.2319 0.771075 61.3123 1.06568C61.3926 1.36028 61.4328 1.68166 61.4328 2.02982V21.594C61.4328 21.9823 61.3859 22.3171 61.2922 22.5983C61.1984 22.8661 60.9842 23 60.6494 23ZM68.684 23C68.2956 23 68.0613 22.8661 67.9809 22.5983C67.9006 22.3171 67.8604 21.9957 67.8604 21.6341V2.06999C67.8604 1.68166 67.9006 1.34688 67.9809 1.06568C68.0747 0.771075 68.3224 0.623775 68.7241 0.623775C69.0589 0.623775 69.2665 0.771075 69.3468 1.06568C69.4272 1.36028 69.4673 1.68166 69.4673 2.02982V21.594C69.4673 21.9823 69.4205 22.3171 69.3267 22.5983C69.233 22.8661 69.0187 23 68.684 23ZM89.4934 23.4218C84.512 23.4218 80.7559 22.5313 78.225 20.7503C75.6941 18.9559 74.4287 15.9765 74.4287 11.8119C74.4287 7.64731 75.6941 4.67453 78.225 2.89354C80.7559 1.09915 84.512 0.201961 89.4934 0.201961C91.2209 0.201961 92.9081 0.362652 94.5552 0.684034C96.2023 0.992025 97.8628 1.49418 99.5366 2.19051C99.9384 2.36459 100.139 2.61902 100.139 2.95379C100.139 3.35552 99.925 3.55639 99.4965 3.55639C99.4027 3.55639 99.2755 3.52291 99.1148 3.45595C97.5749 2.81319 95.9747 2.33112 94.3142 2.00974C92.6537 1.68835 91.0468 1.52766 89.4934 1.52766C84.7263 1.52766 81.3049 2.34451 79.2293 3.9782C77.1671 5.5985 76.136 8.20973 76.136 11.8119C76.136 15.414 77.1671 18.032 79.2293 19.6657C81.3049 21.286 84.7263 22.0961 89.4934 22.0961C91.4753 22.0961 93.4036 21.9622 95.2783 21.6944C97.1531 21.4266 99.001 21.0717 100.822 20.6298V12.2337H90.5781C90.2567 12.2337 89.9353 12.2069 89.614 12.1534C89.306 12.0864 89.152 11.8788 89.152 11.5307C89.152 11.1825 89.306 10.9817 89.614 10.9281C89.922 10.8611 90.2433 10.8277 90.5781 10.8277H100.822C101.385 10.8277 101.766 10.9348 101.967 11.149C102.168 11.3633 102.268 11.7248 102.268 12.2337V20.6298C102.268 21.0449 102.114 21.3663 101.806 21.594C101.498 21.8082 101.17 21.9488 100.822 22.0158C98.8403 22.4041 96.9187 22.7322 95.0574 23C93.196 23.2812 91.3414 23.4218 89.4934 23.4218ZM117.032 23.2009C114.568 23.2009 112.606 22.8795 111.147 22.2367C109.687 21.594 108.636 20.6834 107.993 19.505C107.364 18.3132 107.049 16.9004 107.049 15.2667C107.049 12.4279 107.852 10.3791 109.459 9.12031C111.08 7.84818 113.604 7.21211 117.032 7.21211C120.46 7.21211 122.977 7.84818 124.584 9.12031C126.205 10.3791 127.015 12.4279 127.015 15.2667C127.015 16.9004 126.693 18.3132 126.051 19.505C125.421 20.6834 124.377 21.594 122.917 22.2367C121.458 22.8795 119.496 23.2009 117.032 23.2009ZM117.032 22.0158C118.853 22.0158 120.319 21.8216 121.431 21.4333C122.542 21.0449 123.379 20.5227 123.942 19.8665C124.517 19.2104 124.906 18.4873 125.107 17.6972C125.307 16.8937 125.408 16.0836 125.408 15.2667C125.408 12.776 124.745 11.0084 123.419 9.96394C122.094 8.91945 119.964 8.3972 117.032 8.3972C114.099 8.3972 111.97 8.91945 110.644 9.96394C109.319 11.0084 108.656 12.776 108.656 15.2667C108.656 16.0836 108.756 16.8937 108.957 17.6972C109.158 18.4873 109.54 19.2104 110.102 19.8665C110.678 20.5227 111.522 21.0449 112.633 21.4333C113.744 21.8216 115.211 22.0158 117.032 22.0158ZM140.854 23.2009C139.247 23.2009 137.768 22.9665 136.415 22.4978C135.076 22.0292 133.998 21.2257 133.181 20.0875C132.364 18.9492 131.956 17.3758 131.956 15.3672C131.956 12.3676 132.726 10.2585 134.266 9.03997C135.819 7.82139 138.015 7.21211 140.854 7.21211C142.729 7.21211 144.269 7.35271 145.474 7.63392C146.679 7.91513 147.63 8.2566 148.326 8.65833C149.036 9.04666 149.558 9.41491 149.893 9.76308V2.04991C149.893 1.68835 149.927 1.36028 149.994 1.06568C150.061 0.771075 150.288 0.623775 150.677 0.623775C151.065 0.623775 151.299 0.757684 151.38 1.0255C151.46 1.29332 151.5 1.6214 151.5 2.00974V21.9153C151.5 22.3438 151.413 22.6317 151.239 22.779C151.078 22.9263 150.904 23 150.717 23C150.489 23 150.295 22.933 150.134 22.7991C149.974 22.6652 149.893 22.384 149.893 21.9555V19.1635C149.679 20.0205 149.217 20.7168 148.507 21.2525C147.811 21.7881 147.001 22.1965 146.077 22.4778C145.153 22.759 144.222 22.9464 143.285 23.0402C142.347 23.1473 141.537 23.2009 140.854 23.2009ZM140.854 22.0158C141.658 22.0158 142.528 21.9622 143.466 21.8551C144.416 21.7346 145.334 21.527 146.217 21.2324C147.101 20.9378 147.871 20.5294 148.527 20.0071C149.197 19.4715 149.652 18.7819 149.893 17.9382V10.7071C149.491 10.3724 148.922 10.0309 148.186 9.68273C147.463 9.32118 146.505 9.01988 145.313 8.77884C144.135 8.52442 142.649 8.3972 140.854 8.3972C138.283 8.3972 136.422 8.95293 135.27 10.0644C134.132 11.1624 133.563 12.93 133.563 15.3672C133.563 17.0544 133.891 18.3868 134.547 19.3644C135.203 20.3285 136.08 21.0114 137.179 21.4132C138.29 21.8149 139.515 22.0158 140.854 22.0158ZM165.44 23.2009C163.833 23.2009 162.353 22.9665 161.001 22.4978C159.662 22.0292 158.584 21.2257 157.767 20.0875C156.95 18.9492 156.542 17.3758 156.542 15.3672C156.542 12.3676 157.312 10.2585 158.852 9.03997C160.405 7.82139 162.601 7.21211 165.44 7.21211C167.315 7.21211 168.855 7.35271 170.06 7.63392C171.265 7.91513 172.216 8.2566 172.912 8.65833C173.622 9.04666 174.144 9.41491 174.479 9.76308V2.04991C174.479 1.68835 174.512 1.36028 174.579 1.06568C174.646 0.771075 174.874 0.623775 175.262 0.623775C175.651 0.623775 175.885 0.757684 175.965 1.0255C176.046 1.29332 176.086 1.6214 176.086 2.00974V21.9153C176.086 22.3438 175.999 22.6317 175.825 22.779C175.664 22.9263 175.49 23 175.302 23C175.075 23 174.881 22.933 174.72 22.7991C174.559 22.6652 174.479 22.384 174.479 21.9555V19.1635C174.265 20.0205 173.803 20.7168 173.093 21.2525C172.397 21.7881 171.586 22.1965 170.662 22.4778C169.739 22.759 168.808 22.9464 167.87 23.0402C166.933 23.1473 166.123 23.2009 165.44 23.2009ZM165.44 22.0158C166.243 22.0158 167.114 21.9622 168.051 21.8551C169.002 21.7346 169.919 21.527 170.803 21.2324C171.687 20.9378 172.457 20.5294 173.113 20.0071C173.783 19.4715 174.238 18.7819 174.479 17.9382V10.7071C174.077 10.3724 173.508 10.0309 172.772 9.68273C172.048 9.32118 171.091 9.01988 169.899 8.77884C168.721 8.52442 167.234 8.3972 165.44 8.3972C162.869 8.3972 161.008 8.95293 159.856 10.0644C158.718 11.1624 158.149 12.93 158.149 15.3672C158.149 17.0544 158.477 18.3868 159.133 19.3644C159.789 20.3285 160.666 21.0114 161.764 21.4132C162.876 21.8149 164.101 22.0158 165.44 22.0158ZM191.693 23.2009C190.742 23.2009 189.691 23.1607 188.539 23.0803C187.388 23.0134 186.27 22.846 185.185 22.5782C184.114 22.297 183.19 21.8551 182.413 21.2525C182.226 21.1052 182.132 20.9311 182.132 20.7302C182.132 20.3017 182.306 20.0875 182.654 20.0875C182.761 20.0875 182.842 20.1143 182.895 20.1678C184.02 20.9445 185.312 21.4467 186.772 21.6743C188.231 21.9019 189.805 22.0158 191.492 22.0158C192.831 22.0158 194.09 21.922 195.268 21.7346C196.447 21.5471 197.397 21.219 198.121 20.7503C198.857 20.2816 199.225 19.6322 199.225 18.8019C199.225 17.9851 198.904 17.3758 198.261 16.9741C197.632 16.5724 196.795 16.2978 195.75 16.1505C194.719 16.0032 193.581 15.9162 192.336 15.8894C191.09 15.8626 189.838 15.8225 188.58 15.7689C187.334 15.7153 186.189 15.5747 185.145 15.3471C184.114 15.1061 183.277 14.711 182.634 14.162C182.005 13.613 181.69 12.8296 181.69 11.8119C181.69 10.5799 182.112 9.63586 182.955 8.97971C183.812 8.31016 184.904 7.84818 186.229 7.59375C187.555 7.33932 188.928 7.21211 190.347 7.21211C192.061 7.21211 193.688 7.35941 195.228 7.65401C196.781 7.94861 198.194 8.43068 199.466 9.10023C199.681 9.22074 199.801 9.40822 199.828 9.66265C199.828 9.83673 199.774 9.99072 199.667 10.1246C199.56 10.2585 199.44 10.3255 199.306 10.3255C199.225 10.3255 199.172 10.3121 199.145 10.2853C198.007 9.70951 196.708 9.25422 195.248 8.91945C193.789 8.57129 192.182 8.3972 190.428 8.3972C189.222 8.3972 188.071 8.50433 186.973 8.71859C185.888 8.91945 185.004 9.26761 184.321 9.76308C183.638 10.2585 183.297 10.9415 183.297 11.8119C183.297 12.5886 183.612 13.1644 184.241 13.5393C184.884 13.9009 185.721 14.1486 186.752 14.2825C187.796 14.4164 188.941 14.4968 190.186 14.5235C191.445 14.5503 192.697 14.5972 193.943 14.6642C195.188 14.7311 196.326 14.8918 197.357 15.1462C198.402 15.4007 199.239 15.8158 199.868 16.3916C200.511 16.954 200.832 17.7575 200.832 18.8019C200.832 19.9 200.397 20.7704 199.527 21.4132C198.67 22.0425 197.545 22.4978 196.152 22.779C194.759 23.0603 193.273 23.2009 191.693 23.2009Z" fill="black"/>
</svg>
