<svg width="25" height="98" viewBox="0 0 25 98" fill="none" xmlns="http://www.w3.org/2000/svg">
<path d="M19 96.7386C19 97.0045 18.914 97.2235 18.7419 97.3956C18.5698 97.5676 18.3508 97.6537 18.0849 97.6537H1.59025C1.32434 97.6537 1.10534 97.5676 0.933281 97.3956C0.761217 97.2235 0.675186 97.0045 0.675186 96.7386L0.675186 92.5152C0.675186 91.17 0.901997 89.9421 1.35562 88.8315C1.7936 87.7052 2.42711 86.7354 3.25615 85.922C4.06954 85.1086 5.03153 84.483 6.14213 84.045C7.25272 83.5914 8.48063 83.3645 9.82586 83.3645C11.1711 83.3645 12.4068 83.5914 13.5331 84.045C14.6437 84.483 15.6135 85.1086 16.4425 85.922C17.2559 86.7354 17.8894 87.7052 18.343 88.8315C18.781 89.9421 19 91.17 19 92.5152V96.7386ZM17.3576 95.8235V92.5152C17.3576 91.0761 17.0369 89.8091 16.3956 88.7142C15.7386 87.6036 14.847 86.7354 13.7208 86.1097C12.5789 85.4841 11.2806 85.1712 9.82586 85.1712C8.37114 85.1712 7.08066 85.4841 5.95442 86.1097C4.81254 86.7354 3.92094 87.6036 3.27961 88.7142C2.63828 89.8091 2.31761 91.0761 2.31761 92.5152L2.31761 95.8235H17.3576ZM19.1173 74.0137C19.1173 75.2807 18.8436 76.4069 18.2961 77.3924C17.733 78.3622 16.9587 79.1287 15.9732 79.6918C14.9878 80.2393 13.8615 80.513 12.5945 80.513C11.3119 80.513 10.1856 80.2549 9.21582 79.7387C8.23036 79.2069 7.45607 78.4795 6.89295 77.5566C6.32983 76.6338 6.04827 75.5701 6.04827 74.3656C6.04827 73.1768 6.32201 72.1445 6.86949 71.2685C7.40132 70.3769 8.14433 69.6886 9.0985 69.2037C10.0527 68.7188 11.1398 68.4764 12.3599 68.4764C12.6102 68.4764 12.8135 68.5546 12.9699 68.711C13.1107 68.8674 13.1811 69.0708 13.1811 69.321V79.2929H11.6795V69.1333L12.4068 70.1423C11.4996 70.1266 10.6862 70.2909 9.96664 70.635C9.2471 70.9791 8.68398 71.4718 8.27729 72.1132C7.87059 72.7389 7.66724 73.4897 7.66724 74.3656C7.66724 75.2572 7.87841 76.0394 8.30075 76.712C8.72309 77.3846 9.30967 77.9086 10.0605 78.284C10.7957 78.6438 11.6404 78.8237 12.5945 78.8237C13.5487 78.8237 14.3934 78.6203 15.1286 78.2136C15.8637 77.7913 16.4425 77.2203 16.8648 76.5008C17.2872 75.7813 17.4984 74.9522 17.4984 74.0137C17.4984 73.4506 17.4045 72.8875 17.2168 72.3243C17.0134 71.7456 16.7632 71.2841 16.466 70.94C16.3252 70.7679 16.2548 70.5724 16.2548 70.3534C16.2392 70.1344 16.2939 69.9467 16.419 69.7903C16.6067 69.587 16.8101 69.4853 17.0291 69.4853C17.2481 69.4696 17.4358 69.5557 17.5922 69.7434C18.0302 70.2596 18.3978 70.9165 18.695 71.7143C18.9765 72.512 19.1173 73.2785 19.1173 74.0137ZM19.1173 60.9386C19.1173 61.8615 18.9609 62.7766 18.6481 63.6838C18.3352 64.5911 17.8659 65.3262 17.2403 65.8894C17.0525 66.0614 16.8414 66.1318 16.6067 66.1005C16.3721 66.0692 16.1688 65.9519 15.9967 65.7486C15.8403 65.5296 15.7777 65.3028 15.809 65.0681C15.8403 64.8335 15.942 64.638 16.114 64.4816C16.552 64.1061 16.8883 63.6134 17.1229 63.0034C17.3576 62.3777 17.4749 61.6894 17.4749 60.9386C17.4749 59.7811 17.2794 58.9442 16.8883 58.428C16.4816 57.9118 15.9967 57.6459 15.4336 57.6303C14.8705 57.6303 14.409 57.8962 14.0492 58.428C13.6738 58.9599 13.3845 59.8358 13.1811 61.0559C12.9308 62.6358 12.4929 63.7933 11.8672 64.5285C11.2415 65.2637 10.4985 65.6313 9.63815 65.6313C8.8404 65.6313 8.17561 65.4201 7.64378 64.9978C7.11194 64.5754 6.71307 64.0123 6.44715 63.3084C6.18123 62.6045 6.04827 61.8302 6.04827 60.9855C6.04827 59.9375 6.22816 59.0381 6.58793 58.2873C6.9477 57.5208 7.43261 56.9029 8.04265 56.4337C8.246 56.2772 8.45717 56.2147 8.67616 56.246C8.89515 56.2772 9.07504 56.4024 9.21582 56.6214C9.32531 56.8091 9.36442 57.0281 9.33313 57.2783C9.28621 57.513 9.16889 57.7163 8.98118 57.8884C8.52756 58.2794 8.19907 58.7331 7.99573 59.2492C7.77674 59.7654 7.66724 60.3598 7.66724 61.0325C7.66724 61.8928 7.84713 62.581 8.2069 63.0972C8.55102 63.6134 8.989 63.8715 9.52084 63.8715C9.88061 63.8715 10.1935 63.7777 10.4594 63.59C10.7253 63.3866 10.9599 63.0503 11.1633 62.581C11.3666 62.0961 11.5387 61.4235 11.6795 60.5632C11.8672 59.39 12.1487 58.4671 12.5241 57.7945C12.8839 57.1063 13.3141 56.6214 13.8146 56.3398C14.2995 56.0426 14.8314 55.894 15.4101 55.894C16.1453 55.894 16.7945 56.113 17.3576 56.551C17.905 56.9733 18.3352 57.5677 18.6481 58.3342C18.9609 59.085 19.1173 59.9531 19.1173 60.9386ZM14.7062 51.2937L13.5096 52.3965L6.25944 44.3721C6.08738 44.1844 6.00917 43.9888 6.02481 43.7855C6.02481 43.5821 6.11866 43.3944 6.30637 43.2224C6.49408 43.0503 6.69742 42.9721 6.91641 42.9877C7.11976 42.9877 7.29965 43.0816 7.45607 43.2693L14.7062 51.2937ZM19 51.8803C19 52.1462 18.9218 52.3652 18.7654 52.5373C18.5933 52.6937 18.3743 52.7719 18.1084 52.7719H1.56679C1.30087 52.7719 1.0897 52.6937 0.933281 52.5373C0.761217 52.3652 0.675186 52.1462 0.675186 51.8803C0.675186 51.6144 0.761217 51.4032 0.933281 51.2468C1.0897 51.0747 1.30087 50.9887 1.56679 50.9887H18.1084C18.3743 50.9887 18.5933 51.0747 18.7654 51.2468C18.9218 51.4032 19 51.6144 19 51.8803ZM18.8827 43.1989C19.0547 43.4023 19.1251 43.6134 19.0939 43.8324C19.0782 44.0514 18.9687 44.2391 18.7654 44.3955L12.3364 49.6278L11.2102 48.3608L17.7095 43.0816C17.8972 42.9252 18.1006 42.8548 18.3196 42.8704C18.5229 42.8861 18.7106 42.9956 18.8827 43.1989ZM19 34.3236C19 35.1526 18.8045 35.8956 18.4134 36.5526C18.0224 37.1939 17.4905 37.7023 16.8179 38.0777C16.1297 38.4531 15.3476 38.6408 14.4716 38.6408H2.99805C2.73213 38.6408 2.51314 38.5626 2.34108 38.4062C2.16901 38.2341 2.08298 38.0151 2.08298 37.7492C2.08298 37.4833 2.16901 37.2643 2.34108 37.0922C2.51314 36.9202 2.73213 36.8341 2.99805 36.8341H14.4716C15.2693 36.8341 15.9263 36.5995 16.4425 36.1302C16.9431 35.661 17.1933 35.0587 17.1933 34.3236V33.69C17.1933 33.4398 17.2794 33.2364 17.4514 33.08C17.6235 32.9236 17.8425 32.8454 18.1084 32.8454C18.3743 32.8454 18.5933 32.9392 18.7654 33.1269C18.9218 33.3146 19 33.5493 19 33.8308V34.3236ZM8.2069 40.1659C8.2069 40.4005 8.13651 40.5961 7.99573 40.7525C7.8393 40.9089 7.6516 40.9871 7.43261 40.9871C7.19797 40.9871 7.01027 40.9089 6.86949 40.7525C6.71307 40.5961 6.63486 40.4005 6.63486 40.1659V34.1828C6.63486 33.9481 6.71307 33.7526 6.86949 33.5962C7.01027 33.4398 7.19797 33.3616 7.43261 33.3616C7.6516 33.3616 7.8393 33.4398 7.99573 33.5962C8.13651 33.7526 8.2069 33.9481 8.2069 34.1828V40.1659ZM19.1173 24.062C19.1173 25.3134 18.8358 26.4318 18.2726 27.4173C17.7095 28.4027 16.9352 29.177 15.9498 29.7402C14.9643 30.3033 13.8459 30.5848 12.5945 30.5848C11.3275 30.5848 10.2013 30.3033 9.21582 29.7402C8.23036 29.177 7.45607 28.4027 6.89295 27.4173C6.32983 26.4318 6.04827 25.3134 6.04827 24.062C6.04827 22.8107 6.32983 21.7001 6.89295 20.7303C7.45607 19.7448 8.23036 18.9705 9.21582 18.4074C10.2013 17.8443 11.3275 17.5549 12.5945 17.5393C13.8459 17.5393 14.9643 17.8286 15.9498 18.4074C16.9352 18.9705 17.7095 19.7448 18.2726 20.7303C18.8358 21.7001 19.1173 22.8107 19.1173 24.062ZM17.4749 24.062C17.4749 23.1548 17.2637 22.3414 16.8414 21.6219C16.419 20.9023 15.8403 20.3392 15.1051 19.9325C14.3699 19.5258 13.5331 19.3225 12.5945 19.3225C11.656 19.3225 10.8191 19.5258 10.084 19.9325C9.33313 20.3392 8.74655 20.9023 8.32421 21.6219C7.90187 22.3414 7.6907 23.1548 7.6907 24.062C7.6907 24.9693 7.90187 25.7827 8.32421 26.5022C8.74655 27.2218 9.33313 27.7927 10.084 28.215C10.8191 28.6217 11.656 28.8251 12.5945 28.8251C13.5331 28.8251 14.3699 28.6217 15.1051 28.215C15.8403 27.7927 16.419 27.2218 16.8414 26.5022C17.2637 25.7827 17.4749 24.9693 17.4749 24.062ZM24.4904 13.1104C24.4904 13.3919 24.4044 13.6187 24.2323 13.7908C24.0759 13.9472 23.8569 14.0254 23.5753 14.0254H12.5007C11.2806 14.0098 10.1856 13.7204 9.21582 13.1573C8.23036 12.5785 7.45607 11.8043 6.89295 10.8344C6.32983 9.84898 6.04827 8.74621 6.04827 7.52612C6.04827 6.27474 6.33765 5.15633 6.91641 4.17087C7.47953 3.18541 8.25382 2.41112 9.23928 1.84801C10.2247 1.26925 11.3432 0.979865 12.5945 0.979865C13.8303 0.979865 14.9409 1.26142 15.9263 1.82454C16.9118 2.37202 17.6939 3.12284 18.2726 4.07702C18.8358 5.03119 19.1173 6.1105 19.1173 7.31495C19.1173 8.36297 18.8983 9.31715 18.4603 10.1775C18.0067 11.0221 17.4123 11.7026 16.6771 12.2188H23.5753C23.8569 12.2188 24.0759 12.3048 24.2323 12.4769C24.4044 12.6333 24.4904 12.8445 24.4904 13.1104ZM17.4749 7.52612C17.4749 6.61887 17.2637 5.80548 16.8414 5.08594C16.419 4.3664 15.8403 3.80328 15.1051 3.39658C14.3543 2.97424 13.5174 2.76307 12.5945 2.76307C11.656 2.76307 10.8191 2.97424 10.084 3.39658C9.34877 3.80328 8.77001 4.3664 8.34767 5.08594C7.90969 5.80548 7.6907 6.61887 7.6907 7.52612C7.6907 8.41772 7.90969 9.22329 8.34767 9.94284C8.77001 10.6624 9.34877 11.2255 10.084 11.6322C10.8191 12.0389 11.656 12.2422 12.5945 12.2422C13.5174 12.2422 14.3543 12.0389 15.1051 11.6322C15.8403 11.2255 16.419 10.6624 16.8414 9.94284C17.2637 9.22329 17.4749 8.41772 17.4749 7.52612Z" fill="black"/>
</svg>
